# xmcd
#
# Track frame offsets: 
#        150
#        12620
#        27499
#        40325
#        52356
#        70279
#        85763
#        98983
#        109506
#        122035
#        138565
#        151703
#        168864
#        189597
#        212383
#        241023
#        263362
#        284221
#        304043
#        316595
#
# Disc length: 4534 seconds
#
# Revision: 0
# Processed by: cddbd v1.5.2PL0 Copyright (c) Steve Scherf et al.
# Submitted via: ExactAudioCopyFreeDBPlugin 1.0
#
DISCID=1111b414
DTITLE=Muddy Waters - Can't Be Satisfied- The Very Best of
DYEAR=2018
DGENRE=Blues
TTITLE0=Five Long Years
TTITLE1=She's Nineteen Years Old
TTITLE2=I Got My Mojo Working
TTITLE3=The Same Thing
TTITLE4=My Home Is in the Delta
TTITLE5=Big Leg Woman
TTITLE6=Can't Lose What You Ain't Never Had
TTITLE7=My John the Conquer Root
TTITLE8=Short Dress Woman
TTITLE9=Corine, Corina
TTITLE10=Birdnest on the Ground
TTITLE11=Mannish Boy
TTITLE12=Herbert Harper's Free Press News
TTITLE13=Screamin' and Cryin'
TTITLE14=Long Distance Call
TTITLE15=Country Boy
TTITLE16=Blow Wind Blow
TTITLE17=Young Fashioned Ways
TTITLE18=Can't Get No Grindin'
TTITLE19=Let the Good Times Roll
EXTD=
EXTT0=
EXTT1=
EXTT2=
EXTT3=
EXTT4=
EXTT5=
EXTT6=
EXTT7=
EXTT8=
EXTT9=
EXTT10=
EXTT11=
EXTT12=
EXTT13=
EXTT14=
EXTT15=
EXTT16=
EXTT17=
EXTT18=
EXTT19=
PLAYORDER=
